HIERARCHY
ROOT Hips
{
	OFFSET 0.000000 0.000000 0.000000
	CHANNELS 6 Xposition Yposition Zposition Xrotation Yrotation Zrotation
	JOINT LeftUpLeg_virtual
	{
		OFFSET 0.000000 0.000000 0.000000
		CHANNELS 3 Xrotation Yrotation Zrotation
		JOINT LeftUpLeg
		{
			OFFSET 15.427100 -6.655098 0.678600
			CHANNELS 3 Xrotation Yrotation Zrotation
			JOINT LeftLeg
			{
				OFFSET 4.081073 -39.591068 13.024000
				CHANNELS 3 Xrotation Yrotation Zrotation
				JOINT LeftFoot
				{
					OFFSET -4.081074 -37.707932 -15.979700
					CHANNELS 3 Xrotation Yrotation Zrotation
					JOINT LeftToeBase
					{
						OFFSET 5.346399 -15.068900 20.645000
						CHANNELS 3 Xrotation Yrotation Zrotation
						JOINT LeftToe_End
						{
							OFFSET 2.754700 0.931300 11.300900
							CHANNELS 3 Xrotation Yrotation Zrotation
							End Site
							{
								OFFSET 0 0 0
							}
						}
					}
				}
			}
		}
	}
	JOINT RightUpLeg_virtual
	{
		OFFSET 0.000000 0.000000 0.000000
		CHANNELS 3 Xrotation Yrotation Zrotation
		JOINT RightUpLeg
		{
			OFFSET -15.569500 -6.655098 0.678600
			CHANNELS 3 Xrotation Yrotation Zrotation
			JOINT RightLeg
			{
				OFFSET -4.081825 -39.591045 13.023800
				CHANNELS 3 Xrotation Yrotation Zrotation
				JOINT RightFoot
				{
					OFFSET 4.081824 -37.707954 -15.979600
					CHANNELS 3 Xrotation Yrotation Zrotation
					JOINT RightToeBase
					{
						OFFSET -5.346400 -15.068900 20.645000
						CHANNELS 3 Xrotation Yrotation Zrotation
						JOINT RightToe_End
						{
							OFFSET -2.754700 0.931300 11.300900
							CHANNELS 3 Xrotation Yrotation Zrotation
							End Site
							{
								OFFSET 0 0 0
							}
						}
					}
				}
			}
		}
	}
	JOINT Spine_virtual
	{
		OFFSET 0.000000 0.000000 0.000000
		CHANNELS 3 Xrotation Yrotation Zrotation
		JOINT Spine
		{
			OFFSET -0.279200 12.230698 -2.892100
			CHANNELS 3 Xrotation Yrotation Zrotation
			JOINT Spine1
			{
				OFFSET -0.232667 10.192268 -1.242267
				CHANNELS 3 Xrotation Yrotation Zrotation
				JOINT Spine1_split
				{
					OFFSET -0.232667 10.192268 -1.242267
					CHANNELS 3 Xrotation Yrotation Zrotation
					JOINT Spine2
					{
						OFFSET -0.232667 10.192268 -1.242267
						CHANNELS 3 Xrotation Yrotation Zrotation
						JOINT Neck_virtual
						{
							OFFSET 0.000000 0.000000 0.000000
							CHANNELS 3 Xrotation Yrotation Zrotation
							JOINT Neck
							{
								OFFSET -0.418800 17.814194 8.416900
								CHANNELS 3 Xrotation Yrotation Zrotation
								JOINT Head
								{
									OFFSET 0.000000 7.031097 3.806800
									CHANNELS 3 Xrotation Yrotation Zrotation
									JOINT HeadTop_End
									{
										OFFSET 0.000000 24.646606 12.978600
										CHANNELS 3 Xrotation Yrotation Zrotation
										End Site
										{
											OFFSET 0 0 0
										}
									}
								}
							}
						}
						JOINT LeftShoulder_virtual
						{
							OFFSET 0.000000 0.000000 0.000000
							CHANNELS 3 Xrotation Yrotation Zrotation
							JOINT LeftShoulder
							{
								OFFSET 8.476499 7.247704 -3.868750
								CHANNELS 3 Xrotation Yrotation Zrotation
								JOINT LeftShoulder_split
								{
									OFFSET 8.476499 7.247704 -3.868750
									CHANNELS 3 Xrotation Yrotation Zrotation
									JOINT LeftArm
									{
										OFFSET 9.308998 -2.777710 0.208600
										CHANNELS 3 Xrotation Yrotation Zrotation
										JOINT LeftForeArm
										{
											OFFSET 29.972298 0.000000 0.000000
											CHANNELS 3 Xrotation Yrotation Zrotation
											JOINT LeftHand
											{
												OFFSET 26.026505 0.000000 0.000000
												CHANNELS 3 Xrotation Yrotation Zrotation
												End Site
												{
													OFFSET 0 0 0
												}
											}
										}
									}
								}
							}
						}
						JOINT RightShoulder_virtual
						{
							OFFSET 0.000000 0.000000 0.000000
							CHANNELS 3 Xrotation Yrotation Zrotation
							JOINT RightShoulder
							{
								OFFSET -7.570500 7.247704 -3.868750
								CHANNELS 3 Xrotation Yrotation Zrotation
								JOINT RightShoulder_split
								{
									OFFSET -7.570500 7.247704 -3.868750
									CHANNELS 3 Xrotation Yrotation Zrotation
									JOINT RightArm
									{
										OFFSET -9.308998 -2.777710 0.208500
										CHANNELS 3 Xrotation Yrotation Zrotation
										JOINT RightForeArm
										{
											OFFSET -29.972300 0.000000 0.000000
											CHANNELS 3 Xrotation Yrotation Zrotation
											JOINT RightHand
											{
												OFFSET -26.026505 0.000000 0.000000
												CHANNELS 3 Xrotation Yrotation Zrotation
												End Site
												{
													OFFSET 0 0 0
												}
											}
										}
									}
								}
							}
						}
					}
				}
			}
		}
	}
}
MOTION
Frames: 7
Frame Time: 0.03333333
6.145896 69.777962 141.127289 0.000000 0.000000 0.000000 5.753851 -24.817827 1.222740 21.294383 29.867147 11.864069 36.027622 11.435045 -5.311654 -30.309009 3.763532 -32.097320 -34.393237 -2.261292 -10.682833 0.000000 0.000000 0.000000 7.235089 -20.108734 1.043423 -62.773004 -4.065258 -10.075841 52.035543 3.173442 -3.822921 6.198599 5.550016 7.889394 -5.639177 4.430522 2.570671 0.000000 0.000000 0.000000 6.146369 -22.778114 3.127149 2.138335 -4.444206 -1.177118 2.957622 -6.742814 0.837788 2.321886 -4.472923 0.554063 0.000000 0.000000 0.000000 3.861050 -6.290010 0.703724 12.791093 1.966594 11.470264 -1.423511 4.594010 -15.488195 0.000000 0.000000 0.000000 4.528470 -7.313738 0.233973 -2.674596 -15.386379 -16.553542 -6.141344 8.344101 -0.536591 -45.034603 -10.694248 -25.246003 -20.436510 -71.500401 9.073651 0.000000 0.000000 0.000000 3.731338 -6.275063 1.547360 -0.336033 -0.828582 -0.893431 -5.227576 -1.573527 -3.621152 -29.469394 42.366509 7.923082 48.141154 31.010520 -20.668038 0.000000 0.000000 0.000000 
5.211452 69.511497 146.347961 0.000000 0.000000 0.000000 8.990800 -28.699410 2.028977 27.338800 29.998204 8.375675 28.144230 13.372650 -3.398984 -25.268386 -1.550143 -32.695620 -46.564842 -1.376303 -9.365245 0.000000 0.000000 0.000000 10.782263 -24.880444 1.864767 -63.691569 -4.256310 -4.689017 52.578195 2.496052 -3.576332 3.490879 5.818522 5.944328 -4.966140 3.385528 2.914989 0.000000 0.000000 0.000000 9.380586 -27.547592 2.922317 2.215992 -7.163939 -0.996936 3.184458 -10.246251 1.913175 1.919584 -2.945183 0.525810 0.000000 0.000000 0.000000 3.998911 -9.631680 2.076290 9.824151 5.141776 13.149297 1.102558 11.122874 -19.634777 0.000000 0.000000 0.000000 4.610602 -10.729665 1.703834 -4.457563 -20.365949 -17.223376 -6.708171 9.124802 -0.286960 -42.564680 -18.938235 -29.967578 -15.167186 -55.609635 10.276863 0.000000 0.000000 0.000000 3.731118 -9.707359 2.888928 -0.049325 -3.287783 5.852905 -4.285376 -1.553787 -3.761954 -19.920762 31.987903 0.184775 38.416542 24.282743 -9.276385 0.000000 0.000000 0.000000 
4.169180 69.555420 151.558441 0.000000 0.000000 0.000000 12.189046 -31.722704 2.630572 29.346287 30.375460 8.219807 23.509754 13.830356 -1.778155 -15.490594 -7.894277 -32.891203 -52.231095 -1.246694 -6.937056 0.000000 0.000000 0.000000 14.139321 -28.098056 2.436896 -63.737283 -3.956419 -0.042915 53.586294 1.695924 -3.518743 -0.157368 6.205768 3.193820 -2.213544 2.847802 3.388247 0.000000 0.000000 0.000000 12.262084 -30.973398 2.573307 2.233970 -9.149242 -0.737410 3.636031 -12.751822 2.886148 0.991854 -1.803557 0.514769 0.000000 0.000000 0.000000 4.579466 -11.992246 3.363930 6.245020 7.802219 14.778853 3.518624 16.192939 -22.599091 0.000000 0.000000 0.000000 4.875457 -13.059173 3.038515 -5.507179 -23.969521 -16.232221 -6.823608 8.668039 -0.228545 -41.046104 -27.412440 -35.426542 -12.495473 -40.598603 8.564624 0.000000 0.000000 0.000000 3.851729 -12.207428 3.958711 0.417804 -5.281340 10.217923 -3.115917 -1.019920 -2.927625 -16.883200 23.307380 -1.449866 31.525073 23.663749 -3.480446 0.000000 0.000000 0.000000 
3.235868 69.915421 156.621857 0.000000 0.000000 0.000000 14.689621 -34.741839 2.889614 27.303924 31.473795 11.186779 24.015486 14.445623 -1.277684 -2.640847 -13.309370 -29.234927 -46.454992 -1.464130 -4.431801 0.000000 0.000000 0.000000 16.753807 -30.801476 2.695236 -63.054066 -3.207854 3.392885 54.850589 1.192212 -3.557717 -3.108730 7.095879 1.029399 0.431043 2.807150 3.586594 0.000000 0.000000 0.000000 14.116883 -34.056648 1.946304 2.230530 -10.273998 -0.353144 4.148781 -14.168724 3.564850 0.198000 -1.296192 0.462460 0.000000 0.000000 0.000000 5.336339 -13.307379 4.267746 2.486705 9.940755 16.384548 5.413526 19.975441 -24.327752 0.000000 0.000000 0.000000 5.114539 -14.289193 3.972819 -5.788018 -26.207694 -13.972550 -6.241414 7.388728 -0.531020 -41.948235 -34.670839 -41.982782 -10.786161 -29.330844 5.887493 0.000000 0.000000 0.000000 3.963783 -13.664669 4.591577 0.836392 -6.312118 12.302789 -1.671848 -0.162119 -1.582866 -17.213076 16.854001 -0.303307 25.060804 27.186258 -0.538117 0.000000 0.000000 0.000000 
2.547227 70.467110 161.242035 0.000000 0.000000 0.000000 16.129109 -38.597778 2.968225 20.467640 32.667770 17.272119 30.422448 15.915973 -2.025138 10.667158 -15.253503 -21.574343 -29.814811 -1.034414 -2.737172 0.000000 0.000000 0.000000 18.162038 -33.731156 2.727127 -61.617343 -2.067962 5.439423 55.547063 1.568652 -3.694348 -4.494290 8.620523 0.774590 1.055022 3.041832 3.309866 0.000000 0.000000 0.000000 14.662471 -37.542999 1.032194 2.293574 -10.562519 0.109651 4.538916 -14.607678 3.826340 -0.048244 -1.244403 0.973552 0.000000 0.000000 0.000000 5.969086 -13.726040 4.644104 -0.988511 11.665848 17.920980 6.627394 22.765089 -24.848778 0.000000 0.000000 0.000000 5.119695 -14.597682 4.292426 -5.487314 -27.173761 -11.211168 -5.034990 5.839566 -1.264853 -45.395104 -39.355687 -49.004685 -9.598558 -22.033026 3.023261 0.000000 0.000000 0.000000 3.976074 -14.135700 4.747377 1.092026 -6.018866 12.499778 -0.380751 0.012796 0.552292 -18.899857 12.432408 1.971692 18.105404 30.683368 1.284703 0.000000 0.000000 0.000000 
2.119380 71.141747 165.405579 0.000000 0.000000 0.000000 16.400328 -42.968283 2.841805 10.374278 31.678373 25.374435 40.913277 17.323151 -3.196605 20.646350 -13.517230 -12.409191 -10.778952 -0.276395 -1.456074 0.000000 0.000000 0.000000 18.238958 -37.370437 2.556797 -58.888170 -0.496478 6.411853 55.018789 2.692882 -4.070703 -5.602867 10.539469 2.409205 0.140213 3.382839 2.675576 0.000000 0.000000 0.000000 14.053414 -41.362605 -0.031865 2.482773 -10.213955 0.626622 4.678512 -14.285746 3.688147 0.248483 -1.662822 1.364777 0.000000 0.000000 0.000000 6.200327 -13.466880 4.451447 -3.876251 12.953442 19.118208 7.000747 24.668475 -24.249740 0.000000 0.000000 0.000000 4.898886 -14.214633 4.024528 -4.817498 -27.124124 -8.605354 -3.789646 3.940969 -1.858129 -50.077120 -41.131748 -55.054415 -8.833272 -17.766005 0.438610 0.000000 0.000000 0.000000 3.802348 -13.841996 4.490096 1.220720 -4.683610 11.544661 0.838325 -0.683192 2.427303 -20.875536 9.703365 4.391057 10.648216 30.185666 2.622451 0.000000 0.000000 0.000000 
1.776106 71.824020 169.463776 0.000000 0.000000 0.000000 15.621114 -47.404385 2.672650 0.441692 28.158408 32.514354 52.710400 17.942478 -3.922161 24.362843 -10.218433 -3.789136 1.590534 0.557601 -0.211600 0.000000 0.000000 0.000000 17.171470 -41.425009 2.351321 -54.354403 1.261087 6.595128 52.857601 3.576544 -4.505682 -8.152325 11.934393 4.157224 -0.622382 3.633282 2.014600 0.000000 0.000000 0.000000 12.348687 -45.461746 -1.028036 2.824574 -9.501847 1.122063 4.543680 -13.533810 3.223149 0.932086 -1.619592 1.837493 0.000000 0.000000 0.000000 5.918392 -12.803051 3.792256 -5.802952 13.934452 19.678233 6.730000 25.721692 -22.784227 0.000000 0.000000 0.000000 4.547252 -13.473525 3.339357 -3.932478 -26.331624 -6.303454 -2.659019 2.135362 -2.498910 -54.535027 -41.435039 -58.690880 -8.204755 -15.565610 -1.571281 0.000000 0.000000 0.000000 3.443358 -13.076433 3.944107 1.304408 -2.993685 10.006960 2.214697 -1.663545 3.316051 -23.422114 8.086719 6.156069 3.495849 25.449876 3.100129 0.000000 0.000000 0.000000 
